<svg xmlns="http://www.w3.org/2000/svg" viewBox="0 0 300 300" width="300" height="300">
  <defs>
    <linearGradient id="dad-logo-bg" x1="0%" y1="0%" x2="100%" y2="100%">
      <stop offset="0%" style="stop-color:#0a0a0a;stop-opacity:1" />
      <stop offset="100%" style="stop-color:#1a0f0a;stop-opacity:1" />
    </linearGradient>
    <linearGradient id="dad-logo-coral" x1="0%" y1="0%" x2="100%" y2="100%">
      <stop offset="0%" style="stop-color:#e85d3a;stop-opacity:1" />
      <stop offset="100%" style="stop-color:#f39c12;stop-opacity:1" />
    </linearGradient>
  </defs>
  <circle cx="150" cy="150" r="148" fill="url(#dad-logo-bg)" stroke="url(#dad-logo-coral)" stroke-width="2"/>
  <circle cx="150" cy="150" r="130" fill="none" stroke="#e85d3a" stroke-width="0.5" opacity="0.3"/>
  <!-- Heart + hands icon -->
  <path d="M150 160 C150 160, 110 125, 110 108 C110 95, 122 85, 133 90 C140 93, 146 100, 150 108 C154 100, 160 93, 167 90 C178 85, 190 95, 190 108 C190 125, 150 160, 150 160 Z" fill="rgba(232,93,58,0.3)" stroke="#e85d3a" stroke-width="2"/>
  <!-- People icons -->
  <circle cx="120" cy="170" r="8" fill="none" stroke="#f39c12" stroke-width="1.5"/>
  <line x1="120" y1="178" x2="120" y2="195" stroke="#f39c12" stroke-width="1.5"/>
  <circle cx="150" cy="170" r="8" fill="none" stroke="#e85d3a" stroke-width="1.5"/>
  <line x1="150" y1="178" x2="150" y2="195" stroke="#e85d3a" stroke-width="1.5"/>
  <circle cx="180" cy="170" r="8" fill="none" stroke="#f39c12" stroke-width="1.5"/>
  <line x1="180" y1="178" x2="180" y2="195" stroke="#f39c12" stroke-width="1.5"/>
  <!-- D.A.D. text -->
  <text x="150" y="225" font-family="Arial, sans-serif" font-size="22" font-weight="800" text-anchor="middle" fill="url(#dad-logo-coral)">D.A.D.</text>
  <text x="150" y="243" font-family="Arial, sans-serif" font-size="7" font-weight="400" text-anchor="middle" fill="#9aa0a8" letter-spacing="1">DOING EXCEPTIONAL DEEDS</text>
  <text x="150" y="265" font-family="Arial, sans-serif" font-size="11" font-weight="700" text-anchor="middle" fill="#e85d3a">Website Redesign</text>
  <text x="150" y="280" font-family="Arial, sans-serif" font-size="8" font-weight="500" text-anchor="middle" fill="#f39c12">TheSprinters</text>
</svg>
